# xmcd
#
# Track frame offsets: 
#        150
#        12054
#        25572
#        40262
#        52781
#        63872
#        79143
#        92960
#        108565
#        124549
#        138976
#        151870
#        166304
#        180608
#        195180
#        205077
#        218743
#        231805
#        242518
#        254447
#        268877
#        281950
#        296339
#        305022
#        319752
#
# Disc length: 4400 seconds
#
# Revision: 1
# Processed by: cddbd v1.5.2PL0 Copyright (c) Steve Scherf et al.
# Submitted via: ExactAudioCopy v1.0b3
#
DISCID=53112e19
DTITLE=Various Artist - Café St. Tropez
DYEAR=2006
DGENRE=Chanson
TTITLE0=Charles Trenet - Route nationale 7
TTITLE1=Annie Cordy - Leon
TTITLE2=Bourvil - A Biciclette
TTITLE3=André Claveau - Au bord de la Tamise
TTITLE4=Danielle Darrieux - Petite fleur
TTITLE5=Yves Montand - Rose blanche
TTITLE6=Eddie Constantine - Ah! Les femmes...
TTITLE7=Édith Piaf - Hymne à l'amour
TTITLE8=Luis Mariano - Mexico
TTITLE9=Tino Rossi - J'ai besoin que tu m'aimes
TTITLE10=Charles Aznavour - Oublic Loulou
TTITLE11=Juliette Gréco - Je Hais les Dimanches
TTITLE12=Henri Salvador - Le petit Indien
TTITLE13=Fernandel - Je vais au zoo avec Zizi
TTITLE14=Gilbert Bécaud - Un nouveau printemps tout neuf
TTITLE15=Georges Brassens - Chanson pour l'Auvergnat
TTITLE16=Les Compagnons de la chanson - Maitre Pierre
TTITLE17=Charles Trenet - Le soleil et la lune
TTITLE18=Henri Salvador - Elle me donne
TTITLE19=Lucienne Delyle - C'est mon gigolo
TTITLE20=Line Renaud - Ma cabane au Canada
TTITLE21=Alibert - Le plus beau tango 
TTITLE22=Jacques Brel - La Haine
TTITLE23=Les Freres Jacques - L'entrecote
TTITLE24=Patachou - Le bricoleur
EXTD=
EXTT0=
EXTT1=
EXTT2=
EXTT3=
EXTT4=
EXTT5=
EXTT6=
EXTT7=
EXTT8=
EXTT9=
EXTT10=
EXTT11=
EXTT12=
EXTT13=
EXTT14=
EXTT15=
EXTT16=
EXTT17=
EXTT18=
EXTT19=
EXTT20=
EXTT21=
EXTT22=
EXTT23=
EXTT24=
PLAYORDER=
